<svg width="50" height="50" viewBox="0 0 50 50" fill="none" xmlns="http://www.w3.org/2000/svg">
<g clip-path="url(#clip0_1:353)">
<path fill-rule="evenodd" clip-rule="evenodd" d="M0.000152588 25.1396C0.000152588 37.5687 9.02724 47.9042 20.8335 50V31.9437H14.5835V25H20.8335V19.4438C20.8335 13.1937 24.8606 9.72292 30.5564 9.72292C32.3606 9.72292 34.3064 10 36.1106 10.2771V16.6667H32.9168C29.8606 16.6667 29.1668 18.1937 29.1668 20.1396V25H35.8335L34.7231 31.9437H29.1668V50C40.9731 47.9042 50.0002 37.5708 50.0002 25.1396C50.0002 11.3125 38.7502 0 25.0002 0C11.2502 0 0.000152588 11.3125 0.000152588 25.1396Z" fill="white"/>
</g>
<defs>
<clipPath id="clip0_1:353">
<rect width="50" height="50" fill="white" transform="translate(0.000152588)"/>
</clipPath>
</defs>
</svg>
