<svg width="50" height="50" viewBox="0 0 50 50" fill="none" xmlns="http://www.w3.org/2000/svg">
<g clip-path="url(#clip0_1:356)">
<path d="M50.0002 25C50.0002 31.6304 47.3662 37.9893 42.6778 42.6777C37.9894 47.3661 31.6306 50 25.0002 50C18.3697 50 12.0109 47.3661 7.32248 42.6777C2.63407 37.9893 0.000152588 31.6304 0.000152588 25C0.000152588 18.3696 2.63407 12.0107 7.32248 7.32233C12.0109 2.63392 18.3697 0 25.0002 0C31.6306 0 37.9894 2.63392 42.6778 7.32233C47.3662 12.0107 50.0002 18.3696 50.0002 25ZM25.897 18.4563C23.4658 19.4688 18.6033 21.5625 11.3158 24.7375C10.1345 25.2062 9.51265 25.6687 9.4564 26.1187C9.36265 26.8781 10.3158 27.1781 11.6127 27.5875L12.1595 27.7594C13.4345 28.175 15.1533 28.6594 16.0439 28.6781C16.8564 28.6969 17.7595 28.3656 18.7564 27.6781C25.5658 23.0813 29.0814 20.7594 29.3002 20.7094C29.4564 20.6719 29.6752 20.6281 29.8189 20.7594C29.9658 20.8875 29.9502 21.1344 29.9345 21.2C29.8408 21.6031 26.1002 25.0781 24.1658 26.8781C23.5627 27.4406 23.1345 27.8375 23.047 27.9281C22.8543 28.125 22.6585 28.3188 22.4595 28.5094C21.272 29.6531 20.3845 30.5094 22.5064 31.9094C23.5283 32.5844 24.347 33.1375 25.1627 33.6937C26.0502 34.3 26.9377 34.9031 28.0877 35.6594C28.3783 35.8469 28.6595 36.05 28.9314 36.2437C29.9658 36.9812 30.9002 37.6437 32.047 37.5375C32.7158 37.475 33.4064 36.85 33.7564 34.975C34.5845 30.5469 36.2127 20.9562 36.5877 17.0031C36.6105 16.6745 36.5969 16.3444 36.547 16.0187C36.5176 15.756 36.3904 15.5139 36.1908 15.3406C35.9064 15.1443 35.5675 15.0427 35.222 15.05C34.2845 15.0656 32.8377 15.5688 25.897 18.4563Z" fill="white"/>
</g>
<defs>
<clipPath id="clip0_1:356">
<rect width="50" height="50" fill="white" transform="translate(0.000152588)"/>
</clipPath>
</defs>
</svg>
