<svg width="50" height="50" viewBox="0 0 50 50" fill="none" xmlns="http://www.w3.org/2000/svg">
<path d="M25.0002 1C11.7452 1 1.00015 11.745 1.00015 25C1.00015 38.255 11.7452 49 25.0002 49C38.2552 49 49.0002 38.255 49.0002 25C49.0002 11.745 38.2552 1 25.0002 1ZM34.2302 28.0775C34.2302 28.0775 36.3527 30.1725 36.8752 31.145C36.8902 31.165 36.8977 31.185 36.9027 31.195C37.1152 31.5525 37.1652 31.83 37.0602 32.0375C36.8852 32.3825 36.2852 32.5525 36.0802 32.5675H32.3302C32.0702 32.5675 31.5252 32.5 30.8652 32.045C30.3577 31.69 29.8577 31.1075 29.3702 30.54C28.6427 29.695 28.0127 28.965 27.3777 28.965C27.297 28.9649 27.2168 28.9775 27.1402 29.0025C26.6602 29.1575 26.0452 29.8425 26.0452 31.6675C26.0452 32.2375 25.5952 32.565 25.2777 32.565H23.5602C22.9752 32.565 19.9277 32.36 17.2277 29.5125C13.9227 26.025 10.9477 19.03 10.9227 18.965C10.7352 18.5125 11.1227 18.27 11.5452 18.27H15.3327C15.8377 18.27 16.0027 18.5775 16.1177 18.85C16.2527 19.1675 16.7477 20.43 17.5602 21.85C18.8777 24.165 19.6852 25.105 20.3327 25.105C20.4541 25.1036 20.5733 25.0727 20.6802 25.015C21.5252 24.545 21.3677 21.5325 21.3302 20.9075C21.3302 20.79 21.3277 19.56 20.8952 18.97C20.5852 18.5425 20.0577 18.38 19.7377 18.32C19.8672 18.1413 20.0378 17.9964 20.2352 17.8975C20.8152 17.6075 21.8602 17.565 22.8977 17.565H23.4752C24.6002 17.58 24.8902 17.6525 25.2977 17.755C26.1227 17.9525 26.1402 18.485 26.0677 20.3075C26.0452 20.825 26.0227 21.41 26.0227 22.1C26.0227 22.25 26.0152 22.41 26.0152 22.58C25.9902 23.5075 25.9602 24.56 26.6152 24.9925C26.7006 25.0461 26.7993 25.0746 26.9002 25.075C27.1277 25.075 27.8127 25.075 29.6677 21.8925C30.2397 20.8681 30.7369 19.8037 31.1552 18.7075C31.1927 18.6425 31.3027 18.4425 31.4327 18.365C31.5286 18.3161 31.635 18.2912 31.7427 18.2925H36.1952C36.6802 18.2925 37.0127 18.365 37.0752 18.5525C37.1852 18.85 37.0552 19.7575 35.0227 22.51L34.1152 23.7075C32.2727 26.1225 32.2727 26.245 34.2302 28.0775Z" fill="white"/>
</svg>
